<?xml version="1.0" standalone="no"?><!DOCTYPE svg PUBLIC "-//W3C//DTD SVG 1.1//EN" "http://www.w3.org/Graphics/SVG/1.1/DTD/svg11.dtd"><svg t="1566891436867" class="icon" viewBox="0 0 1024 1024" version="1.1" xmlns="http://www.w3.org/2000/svg" p-id="2479" xmlns:xlink="http://www.w3.org/1999/xlink" width="200" height="200"><defs><style type="text/css"></style></defs><path d="M0.230756 629.079532c0.796132-3.709485 1.475608-7.450692 2.408863-11.126408 2.920516-11.510148 8.1711-21.812795 16.003486-30.801517C101.597421 491.930919 184.567088 396.724557 267.43647 301.428144c11.141758-12.812817 24.24724-22.032806 41.381479-24.103978 27.945469-3.377934 48.553833 8.550747 63.149249 31.734772 6.795776 10.794857 10.145058 22.874987 10.178827 35.665291 0.115634 43.436278 0.085958 86.872556 0.11154 130.307811 0.002047 2.12643 0.001023 4.252861 0.001023 7.05058 2.865257 0 5.146207 0 7.427156 0 92.886527 0 185.773054 0.026606 278.660604-0.030699 11.783371-0.007163 22.061458 2.989077 29.587875 12.734022 5.284353 6.843872 6.675026 14.747889 6.675026 23.092951-0.005117 53.125965-0.010233 106.251929 0.019443 159.377894 0.002047 2.728134 0.306992 5.454222 0.562818 9.707083 2.281973-2.486634 3.498684-3.755534 4.656043-5.080715 81.936127-93.668333 163.871231-187.343829 245.795079-281.024441 5.737678-6.560416 5.665023-11.473309-0.160659-18.126846-81.766258-93.375667-163.535587-186.749288-245.307985-280.120862-1.300622-1.483794-2.653433-2.921539-4.925173-5.418406-0.272199 3.723811-0.61603 6.247284-0.618077 8.770757-0.031722 48.949852-0.042979 97.897657-0.00921 146.847509 0.007163 11.231809-3.059686 21.044292-12.18246 28.334325-5.846148 4.670369-12.552897 6.964622-19.934005 6.975878-42.935881 0.066515-85.87074 0.191358-128.804574-0.041956-18.134009-0.098237-31.957853-14.19428-32.05302-31.732725-0.097214-17.936511 14.235213-31.936363 33.379225-32.05916 29.569456-0.189312 59.139935-0.052189 88.709391-0.053212 1.991354 0 3.983731 0 6.90834 0 0-2.37407-0.001023-4.445242 0.001023-6.517437 0.037862-39.425941-0.206708-78.854952 0.198521-118.2768 0.378623-36.909631 28.456099-63.639412 56.317657-67.035766 0.624217-0.076748 1.202385-0.531096 1.801019-0.809435 4.343935 0 8.688893 0 13.031804 0 0.592494 0.282433 1.161453 0.735757 1.781576 0.825808 16.327874 2.354628 29.228695 10.604522 39.938618 22.841218 83.712587 95.646384 167.524434 191.205786 251.042593 287.019992 5.694699 6.532787 10.004865 14.58416 13.591553 22.545482 2.88163 6.39771 3.690042 13.728676 5.418406 20.646226 0 4.343935 0 8.688893 0 13.031804-0.855484 4.059456-1.589195 8.150634-2.589988 12.174274-3.089361 12.415774-9.393951 23.040762-17.794271 32.636305-82.97683 94.777597-165.93831 189.567473-248.7729 284.466843-16.984836 19.459191-37.921681 28.077475-63.089897 22.055318-26.097378-6.244214-41.487903-24.441669-48.322565-49.829895-1.879813-6.980995-2.320858-14.512529-2.357697-21.799492-0.210801-41.769312-0.103354-83.539648-0.104377-125.309984 0-1.985214 0-3.970428 0-6.519484-2.62785-0.122797-4.89345-0.320295-7.160073-0.320295-93.229335-0.016373-186.461739-0.064468-279.69312 0.050142-11.751648 0.014326-21.63474-3.315512-28.983101-12.837376-5.284353-6.847965-6.519484-14.809287-6.517437-23.14514 0.00921-52.964282 0.010233-105.929588-0.01535-158.892847-0.001023-2.75781-0.268106-5.51562-0.412392-8.273431-0.738827-0.514723-1.477654-1.030469-2.217505-1.546216-0.592494 1.357927-0.890276 2.971681-1.817392 4.037966C232.089427 439.45373 150.205489 533.410636 68.334853 627.378797c-5.783727 6.639211-5.625114 11.484565 0.581238 18.507516 69.703525 78.864162 139.417283 157.719114 209.126948 236.577137 11.618619 13.145391 23.229051 26.293853 34.848693 39.435151 1.292436 1.463328 2.62478 2.88777 4.946662 5.437849 0.23536-4.069689 0.530073-6.783497 0.532119-9.495258 0.027629-48.287773 0.044002-96.572476 0.00307-144.860249-0.010233-11.230786 3.000334-21.051455 12.104689-28.376281 6.130627-4.936429 13.20372-7.110955 20.917402-7.121188 43.106774-0.062422 86.213547-0.144286 129.320321 0.029676 15.882736 0.065492 28.569686 10.302647 31.748075 24.787546 3.241834 14.770402-3.542686 29.503964-17.417695 35.713386-5.000897 2.236947-10.955516 3.187599-16.488533 3.245927-29.904077 0.305969-59.813271 0.144286-89.721441 0.144286-1.960655 0-3.922333 0-6.481621 0 0 2.675946 0.00307 4.798283-0.001023 6.921643-0.062422 39.59888 0.302899 79.201853-0.323365 118.791523-0.49221 31.17093-23.953551 58.760289-54.130851 64.200184-21.691021 3.911076-40.60479-2.834558-55.232952-19.10308-35.518958-39.506782-70.555939-79.44847-105.757672-119.238708-48.927339-55.308677-97.79021-110.674659-146.772808-165.933193-10.631128-11.996219-17.237593-25.662473-19.038612-41.621956-0.089028-0.791016-0.566912-1.539053-0.86367-2.306532C0.230756 638.435621 0.230756 633.757065 0.230756 629.079532z" p-id="2480"></path></svg>