<svg xmlns="http://www.w3.org/2000/svg" width="21.59" height="22.291" viewBox="0 0 21.59 22.291">
  <defs>
    <style>
      .cls-1 {
        fill: #acb0b5;
      }
    </style>
  </defs>
  <path id="路径_4537" data-name="路径 4537" class="cls-1" d="M99.44,74.218H93.5c2.3-8.495-1.585-8.928-1.585-8.928-1.647,0-1.305,1.3-1.43,1.519,0,4.154-4.412,7.409-4.412,7.409V86c0,1.163,1.585,1.582,2.206,1.582H97.2c.839,0,1.523-2.2,1.523-2.2,2.206-7.5,2.206-9.735,2.206-9.735a1.346,1.346,0,0,0-1.492-1.426Zm0,0-15.8,0H80.087a.723.723,0,0,0-.745.721l.734,11.881a.741.741,0,0,0,.758.756h3.076c.641,0,.635-.5.635-.5V75.123a.874.874,0,0,0-.9-.9Zm0,0" transform="translate(-79.342 -65.29)"/>
</svg>
